<mxfile host="app.diagrams.net" modified="2024-03-05T18:22:52.514Z" agent="Mozilla/5.0 (Windows NT 10.0; Win64; x64) AppleWebKit/537.36 (KHTML, like Gecko) Chrome/122.0.0.0 Safari/537.36" etag="ccAoCetlioSm5I5EWGFj" version="22.1.15" type="github" pages="2">
  <diagram name="Page-1" id="Aaa21Iurl70UtOA7tG1U">
    <mxGraphModel dx="1050" dy="522" grid="1" gridSize="10" guides="1" tooltips="1" connect="1" arrows="1" fold="1" page="1" pageScale="1" pageWidth="850" pageHeight="1100" math="0" shadow="0">
      <root>
        <mxCell id="0" />
        <mxCell id="1" parent="0" />
        <mxCell id="7Tdmu1i_dDEW09Zp7bAx-89" value="" style="rounded=1;whiteSpace=wrap;html=1;fillColor=none;dashed=1;" parent="1" vertex="1">
          <mxGeometry x="480" y="370" width="310" height="50" as="geometry" />
        </mxCell>
        <mxCell id="7Tdmu1i_dDEW09Zp7bAx-87" value="" style="rounded=1;whiteSpace=wrap;html=1;fillColor=none;dashed=1;" parent="1" vertex="1">
          <mxGeometry x="45" y="562" width="310" height="50" as="geometry" />
        </mxCell>
        <mxCell id="7Tdmu1i_dDEW09Zp7bAx-18" value="" style="rounded=1;whiteSpace=wrap;html=1;fillColor=#f8cecc;strokeColor=#b85450;" parent="1" vertex="1">
          <mxGeometry x="480" y="120" width="320" height="120" as="geometry" />
        </mxCell>
        <mxCell id="7Tdmu1i_dDEW09Zp7bAx-19" style="edgeStyle=orthogonalEdgeStyle;rounded=0;orthogonalLoop=1;jettySize=auto;html=1;entryX=0;entryY=0.5;entryDx=0;entryDy=0;" parent="1" source="7Tdmu1i_dDEW09Zp7bAx-20" target="7Tdmu1i_dDEW09Zp7bAx-22" edge="1">
          <mxGeometry relative="1" as="geometry" />
        </mxCell>
        <mxCell id="7Tdmu1i_dDEW09Zp7bAx-40" style="edgeStyle=orthogonalEdgeStyle;rounded=0;orthogonalLoop=1;jettySize=auto;html=1;" parent="1" source="7Tdmu1i_dDEW09Zp7bAx-20" target="7Tdmu1i_dDEW09Zp7bAx-37" edge="1">
          <mxGeometry relative="1" as="geometry" />
        </mxCell>
        <mxCell id="7Tdmu1i_dDEW09Zp7bAx-20" value="RNN" style="rounded=1;whiteSpace=wrap;html=1;" parent="1" vertex="1">
          <mxGeometry x="500" y="150" width="60" height="60" as="geometry" />
        </mxCell>
        <mxCell id="7Tdmu1i_dDEW09Zp7bAx-21" style="edgeStyle=orthogonalEdgeStyle;rounded=0;orthogonalLoop=1;jettySize=auto;html=1;" parent="1" source="7Tdmu1i_dDEW09Zp7bAx-22" edge="1">
          <mxGeometry relative="1" as="geometry">
            <mxPoint x="675" y="180" as="targetPoint" />
          </mxGeometry>
        </mxCell>
        <mxCell id="7Tdmu1i_dDEW09Zp7bAx-43" style="edgeStyle=orthogonalEdgeStyle;rounded=0;orthogonalLoop=1;jettySize=auto;html=1;" parent="1" source="7Tdmu1i_dDEW09Zp7bAx-22" target="7Tdmu1i_dDEW09Zp7bAx-41" edge="1">
          <mxGeometry relative="1" as="geometry" />
        </mxCell>
        <mxCell id="7Tdmu1i_dDEW09Zp7bAx-22" value="RNN" style="rounded=1;whiteSpace=wrap;html=1;" parent="1" vertex="1">
          <mxGeometry x="590" y="150" width="60" height="60" as="geometry" />
        </mxCell>
        <mxCell id="7Tdmu1i_dDEW09Zp7bAx-47" style="edgeStyle=orthogonalEdgeStyle;rounded=0;orthogonalLoop=1;jettySize=auto;html=1;" parent="1" source="7Tdmu1i_dDEW09Zp7bAx-23" target="7Tdmu1i_dDEW09Zp7bAx-44" edge="1">
          <mxGeometry relative="1" as="geometry" />
        </mxCell>
        <mxCell id="7Tdmu1i_dDEW09Zp7bAx-23" value="RNN" style="rounded=1;whiteSpace=wrap;html=1;" parent="1" vertex="1">
          <mxGeometry x="720" y="150" width="60" height="60" as="geometry" />
        </mxCell>
        <mxCell id="7Tdmu1i_dDEW09Zp7bAx-24" value="" style="endArrow=none;dashed=1;html=1;dashPattern=1 3;strokeWidth=2;rounded=0;" parent="1" edge="1">
          <mxGeometry width="50" height="50" relative="1" as="geometry">
            <mxPoint x="676" y="180.5" as="sourcePoint" />
            <mxPoint x="695" y="180" as="targetPoint" />
          </mxGeometry>
        </mxCell>
        <mxCell id="7Tdmu1i_dDEW09Zp7bAx-25" value="" style="endArrow=classic;html=1;rounded=0;entryX=0;entryY=0.5;entryDx=0;entryDy=0;" parent="1" target="7Tdmu1i_dDEW09Zp7bAx-23" edge="1">
          <mxGeometry width="50" height="50" relative="1" as="geometry">
            <mxPoint x="695" y="180" as="sourcePoint" />
            <mxPoint x="865" y="280" as="targetPoint" />
          </mxGeometry>
        </mxCell>
        <mxCell id="7Tdmu1i_dDEW09Zp7bAx-1" value="" style="rounded=1;whiteSpace=wrap;html=1;fillColor=#dae8fc;strokeColor=#6c8ebf;" parent="1" vertex="1">
          <mxGeometry x="45" y="120" width="320" height="120" as="geometry" />
        </mxCell>
        <mxCell id="7Tdmu1i_dDEW09Zp7bAx-5" style="edgeStyle=orthogonalEdgeStyle;rounded=0;orthogonalLoop=1;jettySize=auto;html=1;entryX=0;entryY=0.5;entryDx=0;entryDy=0;" parent="1" source="7Tdmu1i_dDEW09Zp7bAx-2" target="7Tdmu1i_dDEW09Zp7bAx-3" edge="1">
          <mxGeometry relative="1" as="geometry" />
        </mxCell>
        <mxCell id="7Tdmu1i_dDEW09Zp7bAx-2" value="RNN" style="rounded=1;whiteSpace=wrap;html=1;" parent="1" vertex="1">
          <mxGeometry x="65" y="150" width="60" height="60" as="geometry" />
        </mxCell>
        <mxCell id="7Tdmu1i_dDEW09Zp7bAx-6" style="edgeStyle=orthogonalEdgeStyle;rounded=0;orthogonalLoop=1;jettySize=auto;html=1;" parent="1" source="7Tdmu1i_dDEW09Zp7bAx-3" edge="1">
          <mxGeometry relative="1" as="geometry">
            <mxPoint x="240" y="180" as="targetPoint" />
          </mxGeometry>
        </mxCell>
        <mxCell id="7Tdmu1i_dDEW09Zp7bAx-3" value="RNN" style="rounded=1;whiteSpace=wrap;html=1;" parent="1" vertex="1">
          <mxGeometry x="155" y="150" width="60" height="60" as="geometry" />
        </mxCell>
        <mxCell id="7Tdmu1i_dDEW09Zp7bAx-14" style="edgeStyle=orthogonalEdgeStyle;rounded=0;orthogonalLoop=1;jettySize=auto;html=1;entryX=0;entryY=0.5;entryDx=0;entryDy=0;" parent="1" source="7Tdmu1i_dDEW09Zp7bAx-4" target="7Tdmu1i_dDEW09Zp7bAx-13" edge="1">
          <mxGeometry relative="1" as="geometry" />
        </mxCell>
        <mxCell id="7Tdmu1i_dDEW09Zp7bAx-4" value="RNN" style="rounded=1;whiteSpace=wrap;html=1;" parent="1" vertex="1">
          <mxGeometry x="285" y="150" width="60" height="60" as="geometry" />
        </mxCell>
        <mxCell id="7Tdmu1i_dDEW09Zp7bAx-26" style="edgeStyle=orthogonalEdgeStyle;rounded=0;orthogonalLoop=1;jettySize=auto;html=1;" parent="1" source="7Tdmu1i_dDEW09Zp7bAx-13" target="7Tdmu1i_dDEW09Zp7bAx-20" edge="1">
          <mxGeometry relative="1" as="geometry" />
        </mxCell>
        <mxCell id="7Tdmu1i_dDEW09Zp7bAx-13" value="State" style="rounded=1;whiteSpace=wrap;html=1;fillColor=#e3c800;strokeColor=#B09500;fontColor=#000000;" parent="1" vertex="1">
          <mxGeometry x="395" y="165" width="60" height="30" as="geometry" />
        </mxCell>
        <mxCell id="7Tdmu1i_dDEW09Zp7bAx-16" value="" style="endArrow=none;dashed=1;html=1;dashPattern=1 3;strokeWidth=2;rounded=0;" parent="1" edge="1">
          <mxGeometry width="50" height="50" relative="1" as="geometry">
            <mxPoint x="241" y="180.5" as="sourcePoint" />
            <mxPoint x="260" y="180" as="targetPoint" />
          </mxGeometry>
        </mxCell>
        <mxCell id="7Tdmu1i_dDEW09Zp7bAx-17" value="" style="endArrow=classic;html=1;rounded=0;entryX=0;entryY=0.5;entryDx=0;entryDy=0;" parent="1" target="7Tdmu1i_dDEW09Zp7bAx-4" edge="1">
          <mxGeometry width="50" height="50" relative="1" as="geometry">
            <mxPoint x="260" y="180" as="sourcePoint" />
            <mxPoint x="430" y="280" as="targetPoint" />
          </mxGeometry>
        </mxCell>
        <mxCell id="7Tdmu1i_dDEW09Zp7bAx-27" value="Encoder block" style="text;html=1;align=center;verticalAlign=middle;whiteSpace=wrap;rounded=0;fontStyle=1" parent="1" vertex="1">
          <mxGeometry x="155" y="80" width="100" height="30" as="geometry" />
        </mxCell>
        <mxCell id="7Tdmu1i_dDEW09Zp7bAx-28" value="Decoder block" style="text;html=1;align=center;verticalAlign=middle;whiteSpace=wrap;rounded=0;fontStyle=1" parent="1" vertex="1">
          <mxGeometry x="590" y="257" width="100" height="30" as="geometry" />
        </mxCell>
        <mxCell id="7Tdmu1i_dDEW09Zp7bAx-30" style="edgeStyle=orthogonalEdgeStyle;rounded=0;orthogonalLoop=1;jettySize=auto;html=1;" parent="1" source="7Tdmu1i_dDEW09Zp7bAx-29" target="7Tdmu1i_dDEW09Zp7bAx-2" edge="1">
          <mxGeometry relative="1" as="geometry" />
        </mxCell>
        <mxCell id="7Tdmu1i_dDEW09Zp7bAx-29" value="" style="ellipse;whiteSpace=wrap;html=1;aspect=fixed;fillColor=#d5e8d4;strokeColor=#82b366;" parent="1" vertex="1">
          <mxGeometry x="80" y="260" width="30" height="30" as="geometry" />
        </mxCell>
        <mxCell id="7Tdmu1i_dDEW09Zp7bAx-33" style="edgeStyle=orthogonalEdgeStyle;rounded=0;orthogonalLoop=1;jettySize=auto;html=1;" parent="1" source="7Tdmu1i_dDEW09Zp7bAx-31" target="7Tdmu1i_dDEW09Zp7bAx-3" edge="1">
          <mxGeometry relative="1" as="geometry" />
        </mxCell>
        <mxCell id="7Tdmu1i_dDEW09Zp7bAx-31" value="" style="ellipse;whiteSpace=wrap;html=1;aspect=fixed;fillColor=#d5e8d4;strokeColor=#82b366;" parent="1" vertex="1">
          <mxGeometry x="170" y="260" width="30" height="30" as="geometry" />
        </mxCell>
        <mxCell id="7Tdmu1i_dDEW09Zp7bAx-36" style="edgeStyle=orthogonalEdgeStyle;rounded=0;orthogonalLoop=1;jettySize=auto;html=1;entryX=0.5;entryY=1;entryDx=0;entryDy=0;" parent="1" source="7Tdmu1i_dDEW09Zp7bAx-34" target="7Tdmu1i_dDEW09Zp7bAx-4" edge="1">
          <mxGeometry relative="1" as="geometry" />
        </mxCell>
        <mxCell id="7Tdmu1i_dDEW09Zp7bAx-34" value="" style="ellipse;whiteSpace=wrap;html=1;aspect=fixed;fillColor=#d5e8d4;strokeColor=#82b366;" parent="1" vertex="1">
          <mxGeometry x="300" y="260" width="30" height="30" as="geometry" />
        </mxCell>
        <mxCell id="7Tdmu1i_dDEW09Zp7bAx-37" value="" style="ellipse;whiteSpace=wrap;html=1;aspect=fixed;fillColor=#ffe6cc;strokeColor=#d79b00;" parent="1" vertex="1">
          <mxGeometry x="515" y="65" width="30" height="30" as="geometry" />
        </mxCell>
        <mxCell id="7Tdmu1i_dDEW09Zp7bAx-38" style="edgeStyle=orthogonalEdgeStyle;rounded=0;orthogonalLoop=1;jettySize=auto;html=1;exitX=0.5;exitY=1;exitDx=0;exitDy=0;" parent="1" source="7Tdmu1i_dDEW09Zp7bAx-37" target="7Tdmu1i_dDEW09Zp7bAx-37" edge="1">
          <mxGeometry relative="1" as="geometry" />
        </mxCell>
        <mxCell id="7Tdmu1i_dDEW09Zp7bAx-41" value="" style="ellipse;whiteSpace=wrap;html=1;aspect=fixed;fillColor=#ffe6cc;strokeColor=#d79b00;" parent="1" vertex="1">
          <mxGeometry x="605" y="65" width="30" height="30" as="geometry" />
        </mxCell>
        <mxCell id="7Tdmu1i_dDEW09Zp7bAx-44" value="" style="ellipse;whiteSpace=wrap;html=1;aspect=fixed;fillColor=#ffe6cc;strokeColor=#d79b00;" parent="1" vertex="1">
          <mxGeometry x="735" y="65" width="30" height="30" as="geometry" />
        </mxCell>
        <mxCell id="7Tdmu1i_dDEW09Zp7bAx-48" value="" style="rounded=1;whiteSpace=wrap;html=1;fillColor=none;dashed=1;" parent="1" vertex="1">
          <mxGeometry x="50" y="250" width="310" height="50" as="geometry" />
        </mxCell>
        <mxCell id="7Tdmu1i_dDEW09Zp7bAx-50" value="Input (sequence)" style="text;html=1;align=center;verticalAlign=middle;whiteSpace=wrap;rounded=0;fillColor=default;" parent="1" vertex="1">
          <mxGeometry x="196" y="287" width="107" height="25" as="geometry" />
        </mxCell>
        <mxCell id="7Tdmu1i_dDEW09Zp7bAx-51" value="" style="rounded=1;whiteSpace=wrap;html=1;fillColor=none;dashed=1;" parent="1" vertex="1">
          <mxGeometry x="485" y="58" width="310" height="50" as="geometry" />
        </mxCell>
        <mxCell id="7Tdmu1i_dDEW09Zp7bAx-52" value="Output (sequence)" style="text;html=1;align=center;verticalAlign=middle;whiteSpace=wrap;rounded=0;fillColor=default;" parent="1" vertex="1">
          <mxGeometry x="632" y="48" width="107" height="20" as="geometry" />
        </mxCell>
        <mxCell id="7Tdmu1i_dDEW09Zp7bAx-53" value="" style="rounded=1;whiteSpace=wrap;html=1;fillColor=#f8cecc;strokeColor=#b85450;arcSize=10;" parent="1" vertex="1">
          <mxGeometry x="475" y="432" width="320" height="188" as="geometry" />
        </mxCell>
        <mxCell id="7Tdmu1i_dDEW09Zp7bAx-54" style="edgeStyle=orthogonalEdgeStyle;rounded=0;orthogonalLoop=1;jettySize=auto;html=1;entryX=0;entryY=0.5;entryDx=0;entryDy=0;" parent="1" source="7Tdmu1i_dDEW09Zp7bAx-56" target="7Tdmu1i_dDEW09Zp7bAx-59" edge="1">
          <mxGeometry relative="1" as="geometry" />
        </mxCell>
        <mxCell id="7Tdmu1i_dDEW09Zp7bAx-55" style="edgeStyle=orthogonalEdgeStyle;rounded=0;orthogonalLoop=1;jettySize=auto;html=1;" parent="1" source="7Tdmu1i_dDEW09Zp7bAx-56" target="7Tdmu1i_dDEW09Zp7bAx-83" edge="1">
          <mxGeometry relative="1" as="geometry" />
        </mxCell>
        <mxCell id="7Tdmu1i_dDEW09Zp7bAx-56" value="RNN" style="rounded=1;whiteSpace=wrap;html=1;" parent="1" vertex="1">
          <mxGeometry x="495" y="462" width="60" height="60" as="geometry" />
        </mxCell>
        <mxCell id="7Tdmu1i_dDEW09Zp7bAx-57" style="edgeStyle=orthogonalEdgeStyle;rounded=0;orthogonalLoop=1;jettySize=auto;html=1;" parent="1" source="7Tdmu1i_dDEW09Zp7bAx-59" edge="1">
          <mxGeometry relative="1" as="geometry">
            <mxPoint x="670" y="492" as="targetPoint" />
          </mxGeometry>
        </mxCell>
        <mxCell id="7Tdmu1i_dDEW09Zp7bAx-58" style="edgeStyle=orthogonalEdgeStyle;rounded=0;orthogonalLoop=1;jettySize=auto;html=1;" parent="1" source="7Tdmu1i_dDEW09Zp7bAx-59" target="7Tdmu1i_dDEW09Zp7bAx-85" edge="1">
          <mxGeometry relative="1" as="geometry" />
        </mxCell>
        <mxCell id="7Tdmu1i_dDEW09Zp7bAx-59" value="RNN" style="rounded=1;whiteSpace=wrap;html=1;" parent="1" vertex="1">
          <mxGeometry x="585" y="462" width="60" height="60" as="geometry" />
        </mxCell>
        <mxCell id="7Tdmu1i_dDEW09Zp7bAx-60" style="edgeStyle=orthogonalEdgeStyle;rounded=0;orthogonalLoop=1;jettySize=auto;html=1;" parent="1" source="7Tdmu1i_dDEW09Zp7bAx-61" target="7Tdmu1i_dDEW09Zp7bAx-86" edge="1">
          <mxGeometry relative="1" as="geometry" />
        </mxCell>
        <mxCell id="7Tdmu1i_dDEW09Zp7bAx-61" value="RNN" style="rounded=1;whiteSpace=wrap;html=1;" parent="1" vertex="1">
          <mxGeometry x="715" y="462" width="60" height="60" as="geometry" />
        </mxCell>
        <mxCell id="7Tdmu1i_dDEW09Zp7bAx-62" value="" style="endArrow=none;dashed=1;html=1;dashPattern=1 3;strokeWidth=2;rounded=0;" parent="1" edge="1">
          <mxGeometry width="50" height="50" relative="1" as="geometry">
            <mxPoint x="671" y="492.5" as="sourcePoint" />
            <mxPoint x="690" y="492" as="targetPoint" />
          </mxGeometry>
        </mxCell>
        <mxCell id="7Tdmu1i_dDEW09Zp7bAx-63" value="" style="endArrow=classic;html=1;rounded=0;entryX=0;entryY=0.5;entryDx=0;entryDy=0;" parent="1" target="7Tdmu1i_dDEW09Zp7bAx-61" edge="1">
          <mxGeometry width="50" height="50" relative="1" as="geometry">
            <mxPoint x="690" y="492" as="sourcePoint" />
            <mxPoint x="860" y="592" as="targetPoint" />
          </mxGeometry>
        </mxCell>
        <mxCell id="7Tdmu1i_dDEW09Zp7bAx-64" value="" style="rounded=1;whiteSpace=wrap;html=1;fillColor=#dae8fc;strokeColor=#6c8ebf;" parent="1" vertex="1">
          <mxGeometry x="40" y="432" width="320" height="120" as="geometry" />
        </mxCell>
        <mxCell id="7Tdmu1i_dDEW09Zp7bAx-65" style="edgeStyle=orthogonalEdgeStyle;rounded=0;orthogonalLoop=1;jettySize=auto;html=1;entryX=0;entryY=0.5;entryDx=0;entryDy=0;" parent="1" source="7Tdmu1i_dDEW09Zp7bAx-66" target="7Tdmu1i_dDEW09Zp7bAx-68" edge="1">
          <mxGeometry relative="1" as="geometry" />
        </mxCell>
        <mxCell id="7Tdmu1i_dDEW09Zp7bAx-96" style="edgeStyle=orthogonalEdgeStyle;rounded=0;orthogonalLoop=1;jettySize=auto;html=1;" parent="1" source="7Tdmu1i_dDEW09Zp7bAx-66" target="7Tdmu1i_dDEW09Zp7bAx-92" edge="1">
          <mxGeometry relative="1" as="geometry" />
        </mxCell>
        <mxCell id="7Tdmu1i_dDEW09Zp7bAx-66" value="RNN" style="rounded=1;whiteSpace=wrap;html=1;" parent="1" vertex="1">
          <mxGeometry x="60" y="462" width="60" height="60" as="geometry" />
        </mxCell>
        <mxCell id="7Tdmu1i_dDEW09Zp7bAx-67" style="edgeStyle=orthogonalEdgeStyle;rounded=0;orthogonalLoop=1;jettySize=auto;html=1;" parent="1" source="7Tdmu1i_dDEW09Zp7bAx-68" edge="1">
          <mxGeometry relative="1" as="geometry">
            <mxPoint x="235" y="492" as="targetPoint" />
          </mxGeometry>
        </mxCell>
        <mxCell id="7Tdmu1i_dDEW09Zp7bAx-97" style="edgeStyle=orthogonalEdgeStyle;rounded=0;orthogonalLoop=1;jettySize=auto;html=1;" parent="1" source="7Tdmu1i_dDEW09Zp7bAx-68" target="7Tdmu1i_dDEW09Zp7bAx-94" edge="1">
          <mxGeometry relative="1" as="geometry" />
        </mxCell>
        <mxCell id="7Tdmu1i_dDEW09Zp7bAx-68" value="RNN" style="rounded=1;whiteSpace=wrap;html=1;" parent="1" vertex="1">
          <mxGeometry x="150" y="462" width="60" height="60" as="geometry" />
        </mxCell>
        <mxCell id="7Tdmu1i_dDEW09Zp7bAx-98" style="edgeStyle=orthogonalEdgeStyle;rounded=0;orthogonalLoop=1;jettySize=auto;html=1;" parent="1" source="7Tdmu1i_dDEW09Zp7bAx-70" target="7Tdmu1i_dDEW09Zp7bAx-95" edge="1">
          <mxGeometry relative="1" as="geometry" />
        </mxCell>
        <mxCell id="7Tdmu1i_dDEW09Zp7bAx-70" value="RNN" style="rounded=1;whiteSpace=wrap;html=1;" parent="1" vertex="1">
          <mxGeometry x="280" y="462" width="60" height="60" as="geometry" />
        </mxCell>
        <mxCell id="7Tdmu1i_dDEW09Zp7bAx-73" value="" style="endArrow=none;dashed=1;html=1;dashPattern=1 3;strokeWidth=2;rounded=0;" parent="1" edge="1">
          <mxGeometry width="50" height="50" relative="1" as="geometry">
            <mxPoint x="236" y="492.5" as="sourcePoint" />
            <mxPoint x="255" y="492" as="targetPoint" />
          </mxGeometry>
        </mxCell>
        <mxCell id="7Tdmu1i_dDEW09Zp7bAx-74" value="" style="endArrow=classic;html=1;rounded=0;entryX=0;entryY=0.5;entryDx=0;entryDy=0;" parent="1" target="7Tdmu1i_dDEW09Zp7bAx-70" edge="1">
          <mxGeometry width="50" height="50" relative="1" as="geometry">
            <mxPoint x="255" y="492" as="sourcePoint" />
            <mxPoint x="425" y="592" as="targetPoint" />
          </mxGeometry>
        </mxCell>
        <mxCell id="7Tdmu1i_dDEW09Zp7bAx-77" style="edgeStyle=orthogonalEdgeStyle;rounded=0;orthogonalLoop=1;jettySize=auto;html=1;" parent="1" source="7Tdmu1i_dDEW09Zp7bAx-78" target="7Tdmu1i_dDEW09Zp7bAx-66" edge="1">
          <mxGeometry relative="1" as="geometry" />
        </mxCell>
        <mxCell id="7Tdmu1i_dDEW09Zp7bAx-78" value="" style="ellipse;whiteSpace=wrap;html=1;aspect=fixed;fillColor=#d5e8d4;strokeColor=#82b366;" parent="1" vertex="1">
          <mxGeometry x="75" y="572" width="30" height="30" as="geometry" />
        </mxCell>
        <mxCell id="7Tdmu1i_dDEW09Zp7bAx-79" style="edgeStyle=orthogonalEdgeStyle;rounded=0;orthogonalLoop=1;jettySize=auto;html=1;" parent="1" source="7Tdmu1i_dDEW09Zp7bAx-80" target="7Tdmu1i_dDEW09Zp7bAx-68" edge="1">
          <mxGeometry relative="1" as="geometry" />
        </mxCell>
        <mxCell id="7Tdmu1i_dDEW09Zp7bAx-80" value="" style="ellipse;whiteSpace=wrap;html=1;aspect=fixed;fillColor=#d5e8d4;strokeColor=#82b366;" parent="1" vertex="1">
          <mxGeometry x="165" y="572" width="30" height="30" as="geometry" />
        </mxCell>
        <mxCell id="7Tdmu1i_dDEW09Zp7bAx-81" style="edgeStyle=orthogonalEdgeStyle;rounded=0;orthogonalLoop=1;jettySize=auto;html=1;entryX=0.5;entryY=1;entryDx=0;entryDy=0;" parent="1" source="7Tdmu1i_dDEW09Zp7bAx-82" target="7Tdmu1i_dDEW09Zp7bAx-70" edge="1">
          <mxGeometry relative="1" as="geometry" />
        </mxCell>
        <mxCell id="7Tdmu1i_dDEW09Zp7bAx-82" value="" style="ellipse;whiteSpace=wrap;html=1;aspect=fixed;fillColor=#d5e8d4;strokeColor=#82b366;" parent="1" vertex="1">
          <mxGeometry x="295" y="572" width="30" height="30" as="geometry" />
        </mxCell>
        <mxCell id="7Tdmu1i_dDEW09Zp7bAx-83" value="" style="ellipse;whiteSpace=wrap;html=1;aspect=fixed;fillColor=#ffe6cc;strokeColor=#d79b00;" parent="1" vertex="1">
          <mxGeometry x="510" y="377" width="30" height="30" as="geometry" />
        </mxCell>
        <mxCell id="7Tdmu1i_dDEW09Zp7bAx-84" style="edgeStyle=orthogonalEdgeStyle;rounded=0;orthogonalLoop=1;jettySize=auto;html=1;exitX=0.5;exitY=1;exitDx=0;exitDy=0;" parent="1" source="7Tdmu1i_dDEW09Zp7bAx-83" target="7Tdmu1i_dDEW09Zp7bAx-83" edge="1">
          <mxGeometry relative="1" as="geometry" />
        </mxCell>
        <mxCell id="7Tdmu1i_dDEW09Zp7bAx-85" value="" style="ellipse;whiteSpace=wrap;html=1;aspect=fixed;fillColor=#ffe6cc;strokeColor=#d79b00;strokeWidth=4;" parent="1" vertex="1">
          <mxGeometry x="600" y="377" width="30" height="30" as="geometry" />
        </mxCell>
        <mxCell id="7Tdmu1i_dDEW09Zp7bAx-86" value="" style="ellipse;whiteSpace=wrap;html=1;aspect=fixed;fillColor=#ffe6cc;strokeColor=#d79b00;" parent="1" vertex="1">
          <mxGeometry x="730" y="377" width="30" height="30" as="geometry" />
        </mxCell>
        <mxCell id="7Tdmu1i_dDEW09Zp7bAx-88" value="Input (sequence)" style="text;html=1;align=center;verticalAlign=middle;whiteSpace=wrap;rounded=0;fillColor=default;" parent="1" vertex="1">
          <mxGeometry x="191" y="599" width="107" height="25" as="geometry" />
        </mxCell>
        <mxCell id="7Tdmu1i_dDEW09Zp7bAx-90" value="Output (sequence)" style="text;html=1;align=center;verticalAlign=middle;whiteSpace=wrap;rounded=0;fillColor=default;" parent="1" vertex="1">
          <mxGeometry x="627" y="360" width="107" height="20" as="geometry" />
        </mxCell>
        <mxCell id="7Tdmu1i_dDEW09Zp7bAx-92" value="" style="ellipse;whiteSpace=wrap;html=1;aspect=fixed;fillColor=#e3c800;strokeColor=#B09500;fontColor=#000000;strokeWidth=4;" parent="1" vertex="1">
          <mxGeometry x="75" y="390" width="30" height="30" as="geometry" />
        </mxCell>
        <mxCell id="7Tdmu1i_dDEW09Zp7bAx-101" style="edgeStyle=orthogonalEdgeStyle;rounded=1;orthogonalLoop=1;jettySize=auto;html=1;entryX=0;entryY=0.5;entryDx=0;entryDy=0;exitX=0.5;exitY=0;exitDx=0;exitDy=0;curved=0;" parent="1" source="7Tdmu1i_dDEW09Zp7bAx-94" target="7Tdmu1i_dDEW09Zp7bAx-99" edge="1">
          <mxGeometry relative="1" as="geometry">
            <Array as="points">
              <mxPoint x="180" y="380" />
              <mxPoint x="430" y="380" />
              <mxPoint x="430" y="569" />
            </Array>
          </mxGeometry>
        </mxCell>
        <mxCell id="7Tdmu1i_dDEW09Zp7bAx-94" value="" style="ellipse;whiteSpace=wrap;html=1;aspect=fixed;fillColor=#e3c800;strokeColor=#B09500;fontColor=#000000;" parent="1" vertex="1">
          <mxGeometry x="165" y="390" width="30" height="30" as="geometry" />
        </mxCell>
        <mxCell id="7Tdmu1i_dDEW09Zp7bAx-100" style="edgeStyle=orthogonalEdgeStyle;rounded=1;orthogonalLoop=1;jettySize=auto;html=1;entryX=0;entryY=0.75;entryDx=0;entryDy=0;curved=0;strokeWidth=2;" parent="1" source="7Tdmu1i_dDEW09Zp7bAx-95" target="7Tdmu1i_dDEW09Zp7bAx-99" edge="1">
          <mxGeometry relative="1" as="geometry" />
        </mxCell>
        <mxCell id="7Tdmu1i_dDEW09Zp7bAx-95" value="" style="ellipse;whiteSpace=wrap;html=1;aspect=fixed;fillColor=#e3c800;strokeColor=#B09500;fontColor=#000000;strokeWidth=4;" parent="1" vertex="1">
          <mxGeometry x="295" y="390" width="30" height="30" as="geometry" />
        </mxCell>
        <mxCell id="7Tdmu1i_dDEW09Zp7bAx-103" style="edgeStyle=orthogonalEdgeStyle;rounded=0;orthogonalLoop=1;jettySize=auto;html=1;entryX=0.5;entryY=1;entryDx=0;entryDy=0;exitX=0.123;exitY=0.05;exitDx=0;exitDy=0;exitPerimeter=0;" parent="1" source="7Tdmu1i_dDEW09Zp7bAx-99" target="7Tdmu1i_dDEW09Zp7bAx-56" edge="1">
          <mxGeometry relative="1" as="geometry" />
        </mxCell>
        <mxCell id="7Tdmu1i_dDEW09Zp7bAx-105" style="edgeStyle=orthogonalEdgeStyle;rounded=0;orthogonalLoop=1;jettySize=auto;html=1;entryX=0.5;entryY=1;entryDx=0;entryDy=0;exitX=0.438;exitY=-0.009;exitDx=0;exitDy=0;exitPerimeter=0;" parent="1" source="7Tdmu1i_dDEW09Zp7bAx-99" target="7Tdmu1i_dDEW09Zp7bAx-59" edge="1">
          <mxGeometry relative="1" as="geometry" />
        </mxCell>
        <mxCell id="7Tdmu1i_dDEW09Zp7bAx-106" style="edgeStyle=orthogonalEdgeStyle;rounded=0;orthogonalLoop=1;jettySize=auto;html=1;exitX=0.895;exitY=0.061;exitDx=0;exitDy=0;exitPerimeter=0;entryX=0.5;entryY=1;entryDx=0;entryDy=0;" parent="1" source="7Tdmu1i_dDEW09Zp7bAx-99" target="7Tdmu1i_dDEW09Zp7bAx-61" edge="1">
          <mxGeometry relative="1" as="geometry" />
        </mxCell>
        <mxCell id="7Tdmu1i_dDEW09Zp7bAx-99" value="Attention" style="rounded=1;whiteSpace=wrap;html=1;" parent="1" vertex="1">
          <mxGeometry x="490" y="540" width="285" height="59" as="geometry" />
        </mxCell>
        <mxCell id="7Tdmu1i_dDEW09Zp7bAx-102" style="edgeStyle=orthogonalEdgeStyle;rounded=1;orthogonalLoop=1;jettySize=auto;html=1;entryX=0;entryY=0.25;entryDx=0;entryDy=0;exitX=0.5;exitY=0;exitDx=0;exitDy=0;curved=0;strokeWidth=2;endArrow=classic;endFill=1;" parent="1" source="7Tdmu1i_dDEW09Zp7bAx-92" target="7Tdmu1i_dDEW09Zp7bAx-99" edge="1">
          <mxGeometry relative="1" as="geometry">
            <mxPoint x="190" y="400" as="sourcePoint" />
            <mxPoint x="505" y="579" as="targetPoint" />
            <Array as="points">
              <mxPoint x="90" y="370" />
              <mxPoint x="440" y="370" />
              <mxPoint x="440" y="554" />
            </Array>
          </mxGeometry>
        </mxCell>
        <mxCell id="SEZFjFVEptW5CjxfPVUD-6" style="edgeStyle=orthogonalEdgeStyle;rounded=1;orthogonalLoop=1;jettySize=auto;html=1;exitX=0.5;exitY=0;exitDx=0;exitDy=0;curved=0;" edge="1" parent="1" source="SEZFjFVEptW5CjxfPVUD-2" target="SEZFjFVEptW5CjxfPVUD-3">
          <mxGeometry relative="1" as="geometry" />
        </mxCell>
        <mxCell id="SEZFjFVEptW5CjxfPVUD-2" value="Encoder" style="rounded=1;whiteSpace=wrap;html=1;fillColor=#b1ddf0;strokeColor=#10739e;arcSize=9;" vertex="1" parent="1">
          <mxGeometry x="140" y="1000" width="120" height="130" as="geometry" />
        </mxCell>
        <mxCell id="SEZFjFVEptW5CjxfPVUD-7" style="edgeStyle=orthogonalEdgeStyle;rounded=0;orthogonalLoop=1;jettySize=auto;html=1;entryX=0.5;entryY=1;entryDx=0;entryDy=0;" edge="1" parent="1" source="SEZFjFVEptW5CjxfPVUD-3" target="SEZFjFVEptW5CjxfPVUD-5">
          <mxGeometry relative="1" as="geometry" />
        </mxCell>
        <mxCell id="SEZFjFVEptW5CjxfPVUD-3" value="Decoder" style="rounded=1;whiteSpace=wrap;html=1;fillColor=#fad7ac;strokeColor=#b46504;arcSize=9;" vertex="1" parent="1">
          <mxGeometry x="305" y="950" width="120" height="180" as="geometry" />
        </mxCell>
        <mxCell id="SEZFjFVEptW5CjxfPVUD-8" style="edgeStyle=orthogonalEdgeStyle;rounded=1;orthogonalLoop=1;jettySize=auto;html=1;entryX=0.5;entryY=1;entryDx=0;entryDy=0;curved=0;" edge="1" parent="1" source="SEZFjFVEptW5CjxfPVUD-4" target="SEZFjFVEptW5CjxfPVUD-2">
          <mxGeometry relative="1" as="geometry" />
        </mxCell>
        <mxCell id="SEZFjFVEptW5CjxfPVUD-9" style="edgeStyle=orthogonalEdgeStyle;rounded=1;orthogonalLoop=1;jettySize=auto;html=1;curved=0;" edge="1" parent="1" source="SEZFjFVEptW5CjxfPVUD-4" target="SEZFjFVEptW5CjxfPVUD-3">
          <mxGeometry relative="1" as="geometry" />
        </mxCell>
        <mxCell id="SEZFjFVEptW5CjxfPVUD-4" value="Embedding" style="rounded=1;whiteSpace=wrap;html=1;fillColor=#fad9d5;strokeColor=#ae4132;" vertex="1" parent="1">
          <mxGeometry x="225" y="1180" width="120" height="40" as="geometry" />
        </mxCell>
        <mxCell id="SEZFjFVEptW5CjxfPVUD-5" value="Softmax layer" style="rounded=1;whiteSpace=wrap;html=1;fillColor=#d5e8d4;strokeColor=#82b366;" vertex="1" parent="1">
          <mxGeometry x="305" y="870" width="120" height="60" as="geometry" />
        </mxCell>
        <mxCell id="SEZFjFVEptW5CjxfPVUD-10" value="" style="html=1;shadow=0;dashed=0;shape=mxgraph.bootstrap.rrect;rSize=5;strokeColor=#666666;html=1;whiteSpace=wrap;fillColor=#f5f5f5;fontColor=#333333;" vertex="1" parent="1">
          <mxGeometry x="105" y="1276" width="360" height="30" as="geometry" />
        </mxCell>
        <mxCell id="SEZFjFVEptW5CjxfPVUD-11" value="&lt;i&gt;T&lt;/i&gt;&lt;sub&gt;1&lt;/sub&gt;" style="strokeColor=#666666;fillColor=#f5f5f5;fontColor=#333333;html=1;shadow=0;dashed=0;shape=mxgraph.bootstrap.leftButton;rSize=5;perimeter=none;whiteSpace=wrap;resizeHeight=1;" vertex="1" parent="SEZFjFVEptW5CjxfPVUD-10">
          <mxGeometry width="50" height="30" relative="1" as="geometry" />
        </mxCell>
        <mxCell id="SEZFjFVEptW5CjxfPVUD-12" value="&lt;i&gt;T&lt;/i&gt;&lt;sub&gt;2&lt;/sub&gt;" style="strokeColor=#666666;fillColor=#f5f5f5;fontColor=#333333;html=1;shadow=0;dashed=0;perimeter=none;whiteSpace=wrap;resizeHeight=1;" vertex="1" parent="SEZFjFVEptW5CjxfPVUD-10">
          <mxGeometry width="40" height="30" relative="1" as="geometry">
            <mxPoint x="45" as="offset" />
          </mxGeometry>
        </mxCell>
        <mxCell id="SEZFjFVEptW5CjxfPVUD-13" value="&lt;i&gt;T&lt;sub&gt;n&lt;/sub&gt;&lt;/i&gt;" style="strokeColor=#666666;fillColor=#f5f5f5;fontColor=#333333;html=1;shadow=0;dashed=0;shape=mxgraph.bootstrap.rightButton;rSize=5;perimeter=none;whiteSpace=wrap;resizeHeight=1;" vertex="1" parent="SEZFjFVEptW5CjxfPVUD-10">
          <mxGeometry x="1" width="41" height="30" relative="1" as="geometry">
            <mxPoint x="-41" as="offset" />
          </mxGeometry>
        </mxCell>
        <mxCell id="SEZFjFVEptW5CjxfPVUD-14" value="&lt;i&gt;T&lt;/i&gt;&lt;sub&gt;3&lt;/sub&gt;" style="strokeColor=#666666;fillColor=#f5f5f5;fontColor=#333333;html=1;shadow=0;dashed=0;perimeter=none;whiteSpace=wrap;resizeHeight=1;" vertex="1" parent="SEZFjFVEptW5CjxfPVUD-10">
          <mxGeometry width="40" height="30" relative="1" as="geometry">
            <mxPoint x="85" as="offset" />
          </mxGeometry>
        </mxCell>
        <mxCell id="SEZFjFVEptW5CjxfPVUD-16" value="" style="endArrow=none;dashed=1;html=1;dashPattern=1 3;strokeWidth=2;rounded=0;fillColor=#f5f5f5;strokeColor=#666666;" edge="1" parent="SEZFjFVEptW5CjxfPVUD-10">
          <mxGeometry width="50" height="50" relative="1" as="geometry">
            <mxPoint x="239" y="17" as="sourcePoint" />
            <mxPoint x="199" y="17" as="targetPoint" />
          </mxGeometry>
        </mxCell>
        <mxCell id="SEZFjFVEptW5CjxfPVUD-17" value="" style="html=1;shadow=0;dashed=0;shape=mxgraph.bootstrap.rrect;rSize=5;strokeColor=#FFFFFF;html=1;whiteSpace=wrap;fillColor=#0050ef;fontColor=#ffffff;strokeWidth=3;" vertex="1" parent="1">
          <mxGeometry x="180" y="795" width="360" height="30" as="geometry" />
        </mxCell>
        <mxCell id="SEZFjFVEptW5CjxfPVUD-18" value="&lt;i&gt;p&lt;/i&gt;&lt;sub&gt;1&lt;/sub&gt;" style="strokeColor=#FFFFFF;fillColor=#0050ef;html=1;shadow=0;dashed=0;shape=mxgraph.bootstrap.leftButton;rSize=5;perimeter=none;whiteSpace=wrap;resizeHeight=1;fontColor=#ffffff;strokeWidth=3;" vertex="1" parent="SEZFjFVEptW5CjxfPVUD-17">
          <mxGeometry width="50" height="30" relative="1" as="geometry" />
        </mxCell>
        <mxCell id="SEZFjFVEptW5CjxfPVUD-19" value="&lt;i&gt;p&lt;/i&gt;&lt;sub&gt;2&lt;/sub&gt;" style="strokeColor=#FFFFFF;fillColor=#0050ef;html=1;shadow=0;dashed=0;perimeter=none;whiteSpace=wrap;resizeHeight=1;fontColor=#ffffff;strokeWidth=3;" vertex="1" parent="SEZFjFVEptW5CjxfPVUD-17">
          <mxGeometry width="40" height="30" relative="1" as="geometry">
            <mxPoint x="45" as="offset" />
          </mxGeometry>
        </mxCell>
        <mxCell id="SEZFjFVEptW5CjxfPVUD-20" value="&lt;i&gt;p&lt;/i&gt;&lt;sub&gt;&lt;i&gt;n&lt;/i&gt;&lt;/sub&gt;" style="strokeColor=#FFFFFF;fillColor=#0050ef;html=1;shadow=0;dashed=0;shape=mxgraph.bootstrap.rightButton;rSize=5;perimeter=none;whiteSpace=wrap;resizeHeight=1;fontColor=#ffffff;strokeWidth=3;" vertex="1" parent="SEZFjFVEptW5CjxfPVUD-17">
          <mxGeometry x="1" width="41" height="30" relative="1" as="geometry">
            <mxPoint x="-41" as="offset" />
          </mxGeometry>
        </mxCell>
        <mxCell id="SEZFjFVEptW5CjxfPVUD-21" value="&lt;i&gt;p&lt;/i&gt;&lt;sub&gt;3&lt;/sub&gt;" style="strokeColor=#FFFFFF;fillColor=#0050ef;html=1;shadow=0;dashed=0;perimeter=none;whiteSpace=wrap;resizeHeight=1;fontColor=#ffffff;strokeWidth=3;" vertex="1" parent="SEZFjFVEptW5CjxfPVUD-17">
          <mxGeometry width="40" height="30" relative="1" as="geometry">
            <mxPoint x="85" as="offset" />
          </mxGeometry>
        </mxCell>
        <mxCell id="SEZFjFVEptW5CjxfPVUD-22" value="" style="endArrow=none;dashed=1;html=1;dashPattern=1 3;strokeWidth=3;rounded=0;fillColor=#0050ef;strokeColor=#FFFFFF;" edge="1" parent="SEZFjFVEptW5CjxfPVUD-17">
          <mxGeometry width="50" height="50" relative="1" as="geometry">
            <mxPoint x="239" y="17" as="sourcePoint" />
            <mxPoint x="199" y="17" as="targetPoint" />
          </mxGeometry>
        </mxCell>
        <mxCell id="SEZFjFVEptW5CjxfPVUD-24" value="" style="endArrow=block;html=1;rounded=0;entryX=0.5;entryY=1;entryDx=0;entryDy=0;strokeWidth=3;endFill=1;" edge="1" parent="1">
          <mxGeometry width="50" height="50" relative="1" as="geometry">
            <mxPoint x="285" y="1265" as="sourcePoint" />
            <mxPoint x="285" y="1230" as="targetPoint" />
          </mxGeometry>
        </mxCell>
        <mxCell id="SEZFjFVEptW5CjxfPVUD-25" value="" style="endArrow=block;html=1;rounded=0;entryX=0.5;entryY=1;entryDx=0;entryDy=0;strokeWidth=3;endFill=1;" edge="1" parent="1">
          <mxGeometry width="50" height="50" relative="1" as="geometry">
            <mxPoint x="370" y="865" as="sourcePoint" />
            <mxPoint x="370" y="830" as="targetPoint" />
          </mxGeometry>
        </mxCell>
        <mxCell id="SEZFjFVEptW5CjxfPVUD-26" value="Input token context window" style="text;html=1;strokeColor=none;fillColor=none;align=center;verticalAlign=middle;whiteSpace=wrap;rounded=0;" vertex="1" parent="1">
          <mxGeometry x="465" y="1276" width="185" height="30" as="geometry" />
        </mxCell>
        <mxCell id="SEZFjFVEptW5CjxfPVUD-27" value="Token probability distribution across n tokens in the vocabulary" style="text;html=1;strokeColor=none;fillColor=none;align=center;verticalAlign=middle;whiteSpace=wrap;rounded=0;" vertex="1" parent="1">
          <mxGeometry x="544" y="795" width="190" height="30" as="geometry" />
        </mxCell>
        <mxCell id="SEZFjFVEptW5CjxfPVUD-28" value="" style="endArrow=classic;html=1;rounded=1;curved=0;dashed=1;" edge="1" parent="1">
          <mxGeometry width="50" height="50" relative="1" as="geometry">
            <mxPoint x="380" y="860" as="sourcePoint" />
            <mxPoint x="300" y="1250" as="targetPoint" />
            <Array as="points">
              <mxPoint x="520" y="860" />
              <mxPoint x="520" y="1250" />
            </Array>
          </mxGeometry>
        </mxCell>
        <mxCell id="SEZFjFVEptW5CjxfPVUD-29" value="next token" style="edgeLabel;html=1;align=center;verticalAlign=middle;resizable=0;points=[];" vertex="1" connectable="0" parent="SEZFjFVEptW5CjxfPVUD-28">
          <mxGeometry x="-0.1488" relative="1" as="geometry">
            <mxPoint as="offset" />
          </mxGeometry>
        </mxCell>
      </root>
    </mxGraphModel>
  </diagram>
  <diagram id="TcAx84npzTCaRWuR1E-q" name="Page-2">
    <mxGraphModel dx="1050" dy="522" grid="1" gridSize="10" guides="1" tooltips="1" connect="1" arrows="1" fold="1" page="1" pageScale="1" pageWidth="850" pageHeight="1100" math="0" shadow="0">
      <root>
        <mxCell id="0" />
        <mxCell id="1" parent="0" />
        <mxCell id="ubp4QQkd1jMlwUoyKCY6-1" style="edgeStyle=orthogonalEdgeStyle;rounded=1;orthogonalLoop=1;jettySize=auto;html=1;exitX=0.5;exitY=0;exitDx=0;exitDy=0;curved=0;" edge="1" parent="1" source="ubp4QQkd1jMlwUoyKCY6-2" target="ubp4QQkd1jMlwUoyKCY6-4">
          <mxGeometry relative="1" as="geometry" />
        </mxCell>
        <mxCell id="ubp4QQkd1jMlwUoyKCY6-2" value="Encoder" style="rounded=1;whiteSpace=wrap;html=1;fillColor=#b1ddf0;strokeColor=#10739e;arcSize=9;" vertex="1" parent="1">
          <mxGeometry x="135" y="575" width="120" height="130" as="geometry" />
        </mxCell>
        <mxCell id="ubp4QQkd1jMlwUoyKCY6-3" style="edgeStyle=orthogonalEdgeStyle;rounded=0;orthogonalLoop=1;jettySize=auto;html=1;entryX=0.5;entryY=1;entryDx=0;entryDy=0;" edge="1" parent="1" source="ubp4QQkd1jMlwUoyKCY6-4" target="ubp4QQkd1jMlwUoyKCY6-8">
          <mxGeometry relative="1" as="geometry" />
        </mxCell>
        <mxCell id="ubp4QQkd1jMlwUoyKCY6-4" value="Decoder" style="rounded=1;whiteSpace=wrap;html=1;fillColor=#fad7ac;strokeColor=#b46504;arcSize=9;" vertex="1" parent="1">
          <mxGeometry x="300" y="525" width="120" height="180" as="geometry" />
        </mxCell>
        <mxCell id="ubp4QQkd1jMlwUoyKCY6-5" style="edgeStyle=orthogonalEdgeStyle;rounded=1;orthogonalLoop=1;jettySize=auto;html=1;entryX=0.5;entryY=1;entryDx=0;entryDy=0;curved=0;" edge="1" parent="1" source="ubp4QQkd1jMlwUoyKCY6-7" target="ubp4QQkd1jMlwUoyKCY6-2">
          <mxGeometry relative="1" as="geometry" />
        </mxCell>
        <mxCell id="ubp4QQkd1jMlwUoyKCY6-6" style="edgeStyle=orthogonalEdgeStyle;rounded=1;orthogonalLoop=1;jettySize=auto;html=1;curved=0;" edge="1" parent="1" source="ubp4QQkd1jMlwUoyKCY6-7" target="ubp4QQkd1jMlwUoyKCY6-4">
          <mxGeometry relative="1" as="geometry" />
        </mxCell>
        <mxCell id="ubp4QQkd1jMlwUoyKCY6-7" value="Embedding" style="rounded=1;whiteSpace=wrap;html=1;fillColor=#fad9d5;strokeColor=#ae4132;" vertex="1" parent="1">
          <mxGeometry x="220" y="755" width="120" height="40" as="geometry" />
        </mxCell>
        <mxCell id="ubp4QQkd1jMlwUoyKCY6-8" value="Softmax layer" style="rounded=1;whiteSpace=wrap;html=1;fillColor=#d5e8d4;strokeColor=#82b366;" vertex="1" parent="1">
          <mxGeometry x="300" y="445" width="120" height="60" as="geometry" />
        </mxCell>
        <mxCell id="ubp4QQkd1jMlwUoyKCY6-9" value="" style="html=1;shadow=0;dashed=0;shape=mxgraph.bootstrap.rrect;rSize=5;strokeColor=#666666;html=1;whiteSpace=wrap;fillColor=#f5f5f5;fontColor=#333333;" vertex="1" parent="1">
          <mxGeometry x="100" y="851" width="360" height="30" as="geometry" />
        </mxCell>
        <mxCell id="ubp4QQkd1jMlwUoyKCY6-10" value="&lt;i&gt;T&lt;/i&gt;&lt;sub&gt;1&lt;/sub&gt;" style="strokeColor=#666666;fillColor=#f5f5f5;fontColor=#333333;html=1;shadow=0;dashed=0;shape=mxgraph.bootstrap.leftButton;rSize=5;perimeter=none;whiteSpace=wrap;resizeHeight=1;" vertex="1" parent="ubp4QQkd1jMlwUoyKCY6-9">
          <mxGeometry width="50" height="30" relative="1" as="geometry" />
        </mxCell>
        <mxCell id="ubp4QQkd1jMlwUoyKCY6-11" value="&lt;i&gt;T&lt;/i&gt;&lt;sub&gt;2&lt;/sub&gt;" style="strokeColor=#666666;fillColor=#f5f5f5;fontColor=#333333;html=1;shadow=0;dashed=0;perimeter=none;whiteSpace=wrap;resizeHeight=1;" vertex="1" parent="ubp4QQkd1jMlwUoyKCY6-9">
          <mxGeometry width="40" height="30" relative="1" as="geometry">
            <mxPoint x="45" as="offset" />
          </mxGeometry>
        </mxCell>
        <mxCell id="ubp4QQkd1jMlwUoyKCY6-12" value="&lt;i&gt;T&lt;sub&gt;n&lt;/sub&gt;&lt;/i&gt;" style="strokeColor=#666666;fillColor=#f5f5f5;fontColor=#333333;html=1;shadow=0;dashed=0;shape=mxgraph.bootstrap.rightButton;rSize=5;perimeter=none;whiteSpace=wrap;resizeHeight=1;" vertex="1" parent="ubp4QQkd1jMlwUoyKCY6-9">
          <mxGeometry x="1" width="41" height="30" relative="1" as="geometry">
            <mxPoint x="-41" as="offset" />
          </mxGeometry>
        </mxCell>
        <mxCell id="ubp4QQkd1jMlwUoyKCY6-13" value="&lt;i&gt;T&lt;/i&gt;&lt;sub&gt;3&lt;/sub&gt;" style="strokeColor=#666666;fillColor=#f5f5f5;fontColor=#333333;html=1;shadow=0;dashed=0;perimeter=none;whiteSpace=wrap;resizeHeight=1;" vertex="1" parent="ubp4QQkd1jMlwUoyKCY6-9">
          <mxGeometry width="40" height="30" relative="1" as="geometry">
            <mxPoint x="85" as="offset" />
          </mxGeometry>
        </mxCell>
        <mxCell id="ubp4QQkd1jMlwUoyKCY6-14" value="" style="endArrow=none;dashed=1;html=1;dashPattern=1 3;strokeWidth=2;rounded=0;fillColor=#f5f5f5;strokeColor=#666666;" edge="1" parent="ubp4QQkd1jMlwUoyKCY6-9">
          <mxGeometry width="50" height="50" relative="1" as="geometry">
            <mxPoint x="239" y="17" as="sourcePoint" />
            <mxPoint x="199" y="17" as="targetPoint" />
          </mxGeometry>
        </mxCell>
        <mxCell id="ubp4QQkd1jMlwUoyKCY6-15" value="" style="html=1;shadow=0;dashed=0;shape=mxgraph.bootstrap.rrect;rSize=5;strokeColor=#FFFFFF;html=1;whiteSpace=wrap;fillColor=#0050ef;fontColor=#ffffff;strokeWidth=3;" vertex="1" parent="1">
          <mxGeometry x="175" y="370" width="360" height="30" as="geometry" />
        </mxCell>
        <mxCell id="ubp4QQkd1jMlwUoyKCY6-16" value="&lt;i&gt;p&lt;/i&gt;&lt;sub&gt;1&lt;/sub&gt;" style="strokeColor=#FFFFFF;fillColor=#0050ef;html=1;shadow=0;dashed=0;shape=mxgraph.bootstrap.leftButton;rSize=5;perimeter=none;whiteSpace=wrap;resizeHeight=1;fontColor=#ffffff;strokeWidth=3;" vertex="1" parent="ubp4QQkd1jMlwUoyKCY6-15">
          <mxGeometry width="50" height="30" relative="1" as="geometry" />
        </mxCell>
        <mxCell id="ubp4QQkd1jMlwUoyKCY6-17" value="&lt;i&gt;p&lt;/i&gt;&lt;sub&gt;2&lt;/sub&gt;" style="strokeColor=#FFFFFF;fillColor=#0050ef;html=1;shadow=0;dashed=0;perimeter=none;whiteSpace=wrap;resizeHeight=1;fontColor=#ffffff;strokeWidth=3;" vertex="1" parent="ubp4QQkd1jMlwUoyKCY6-15">
          <mxGeometry width="40" height="30" relative="1" as="geometry">
            <mxPoint x="45" as="offset" />
          </mxGeometry>
        </mxCell>
        <mxCell id="ubp4QQkd1jMlwUoyKCY6-18" value="&lt;i&gt;p&lt;/i&gt;&lt;sub&gt;&lt;i&gt;n&lt;/i&gt;&lt;/sub&gt;" style="strokeColor=#FFFFFF;fillColor=#0050ef;html=1;shadow=0;dashed=0;shape=mxgraph.bootstrap.rightButton;rSize=5;perimeter=none;whiteSpace=wrap;resizeHeight=1;fontColor=#ffffff;strokeWidth=3;" vertex="1" parent="ubp4QQkd1jMlwUoyKCY6-15">
          <mxGeometry x="1" width="41" height="30" relative="1" as="geometry">
            <mxPoint x="-41" as="offset" />
          </mxGeometry>
        </mxCell>
        <mxCell id="ubp4QQkd1jMlwUoyKCY6-19" value="&lt;i&gt;p&lt;/i&gt;&lt;sub&gt;3&lt;/sub&gt;" style="strokeColor=#FFFFFF;fillColor=#0050ef;html=1;shadow=0;dashed=0;perimeter=none;whiteSpace=wrap;resizeHeight=1;fontColor=#ffffff;strokeWidth=3;" vertex="1" parent="ubp4QQkd1jMlwUoyKCY6-15">
          <mxGeometry width="40" height="30" relative="1" as="geometry">
            <mxPoint x="85" as="offset" />
          </mxGeometry>
        </mxCell>
        <mxCell id="ubp4QQkd1jMlwUoyKCY6-20" value="" style="endArrow=none;dashed=1;html=1;dashPattern=1 3;strokeWidth=3;rounded=0;fillColor=#0050ef;strokeColor=#FFFFFF;" edge="1" parent="ubp4QQkd1jMlwUoyKCY6-15">
          <mxGeometry width="50" height="50" relative="1" as="geometry">
            <mxPoint x="239" y="17" as="sourcePoint" />
            <mxPoint x="199" y="17" as="targetPoint" />
          </mxGeometry>
        </mxCell>
        <mxCell id="ubp4QQkd1jMlwUoyKCY6-21" value="" style="endArrow=block;html=1;rounded=0;entryX=0.5;entryY=1;entryDx=0;entryDy=0;strokeWidth=3;endFill=1;" edge="1" parent="1">
          <mxGeometry width="50" height="50" relative="1" as="geometry">
            <mxPoint x="280" y="840" as="sourcePoint" />
            <mxPoint x="280" y="805" as="targetPoint" />
          </mxGeometry>
        </mxCell>
        <mxCell id="ubp4QQkd1jMlwUoyKCY6-22" value="" style="endArrow=block;html=1;rounded=0;entryX=0.5;entryY=1;entryDx=0;entryDy=0;strokeWidth=3;endFill=1;" edge="1" parent="1">
          <mxGeometry width="50" height="50" relative="1" as="geometry">
            <mxPoint x="365" y="440" as="sourcePoint" />
            <mxPoint x="365" y="405" as="targetPoint" />
          </mxGeometry>
        </mxCell>
        <mxCell id="ubp4QQkd1jMlwUoyKCY6-23" value="Input token context window" style="text;html=1;strokeColor=none;fillColor=none;align=center;verticalAlign=middle;whiteSpace=wrap;rounded=0;" vertex="1" parent="1">
          <mxGeometry x="460" y="851" width="185" height="30" as="geometry" />
        </mxCell>
        <mxCell id="ubp4QQkd1jMlwUoyKCY6-24" value="Token probability distribution across n tokens in the vocabulary" style="text;html=1;strokeColor=none;fillColor=none;align=center;verticalAlign=middle;whiteSpace=wrap;rounded=0;" vertex="1" parent="1">
          <mxGeometry x="539" y="370" width="190" height="30" as="geometry" />
        </mxCell>
        <mxCell id="ubp4QQkd1jMlwUoyKCY6-25" value="" style="endArrow=classic;html=1;rounded=1;curved=0;dashed=1;" edge="1" parent="1">
          <mxGeometry width="50" height="50" relative="1" as="geometry">
            <mxPoint x="375" y="435" as="sourcePoint" />
            <mxPoint x="295" y="825" as="targetPoint" />
            <Array as="points">
              <mxPoint x="515" y="435" />
              <mxPoint x="515" y="825" />
            </Array>
          </mxGeometry>
        </mxCell>
        <mxCell id="ubp4QQkd1jMlwUoyKCY6-26" value="next token" style="edgeLabel;html=1;align=center;verticalAlign=middle;resizable=0;points=[];" vertex="1" connectable="0" parent="ubp4QQkd1jMlwUoyKCY6-25">
          <mxGeometry x="-0.1488" relative="1" as="geometry">
            <mxPoint as="offset" />
          </mxGeometry>
        </mxCell>
        <mxCell id="ubp4QQkd1jMlwUoyKCY6-27" value="J&#39;aime l&#39;apprentissage automatique" style="text;whiteSpace=wrap;align=center;" vertex="1" parent="1">
          <mxGeometry x="590" y="545" width="220" height="30" as="geometry" />
        </mxCell>
        <mxCell id="ubp4QQkd1jMlwUoyKCY6-33" value="" style="html=1;shadow=0;dashed=0;shape=mxgraph.bootstrap.rrect;rSize=5;strokeColor=#666666;html=1;whiteSpace=wrap;fillColor=#f5f5f5;fontColor=#333333;" vertex="1" parent="1">
          <mxGeometry x="590" y="620" width="220" height="30" as="geometry" />
        </mxCell>
        <mxCell id="ubp4QQkd1jMlwUoyKCY6-34" value="J&#39;aime" style="strokeColor=#666666;fillColor=#f5f5f5;fontColor=#333333;html=1;shadow=0;dashed=0;shape=mxgraph.bootstrap.leftButton;rSize=5;perimeter=none;whiteSpace=wrap;resizeHeight=1;" vertex="1" parent="ubp4QQkd1jMlwUoyKCY6-33">
          <mxGeometry width="60" height="30" relative="1" as="geometry" />
        </mxCell>
        <mxCell id="ubp4QQkd1jMlwUoyKCY6-35" value="l&#39;apprentissage" style="strokeColor=#666666;fillColor=#f5f5f5;fontColor=#333333;html=1;shadow=0;dashed=0;perimeter=none;whiteSpace=wrap;resizeHeight=1;" vertex="1" parent="ubp4QQkd1jMlwUoyKCY6-33">
          <mxGeometry width="110" height="30" relative="1" as="geometry">
            <mxPoint x="55" as="offset" />
          </mxGeometry>
        </mxCell>
        <mxCell id="ubp4QQkd1jMlwUoyKCY6-36" value="automatique" style="strokeColor=#666666;fillColor=#f5f5f5;fontColor=#333333;html=1;shadow=0;dashed=0;shape=mxgraph.bootstrap.rightButton;rSize=5;perimeter=none;whiteSpace=wrap;resizeHeight=1;" vertex="1" parent="ubp4QQkd1jMlwUoyKCY6-33">
          <mxGeometry x="1" width="79" height="30" relative="1" as="geometry">
            <mxPoint x="-64" as="offset" />
          </mxGeometry>
        </mxCell>
        <mxCell id="ubp4QQkd1jMlwUoyKCY6-40" value="" style="html=1;shadow=0;dashed=0;shape=mxgraph.bootstrap.rrect;rSize=5;strokeColor=#666666;html=1;whiteSpace=wrap;fillColor=#f5f5f5;fontColor=#333333;" vertex="1" parent="1">
          <mxGeometry x="590" y="690" width="220" height="30" as="geometry" />
        </mxCell>
        <mxCell id="ubp4QQkd1jMlwUoyKCY6-41" value="2345" style="strokeColor=#666666;fillColor=#f5f5f5;fontColor=#333333;html=1;shadow=0;dashed=0;shape=mxgraph.bootstrap.leftButton;rSize=5;perimeter=none;whiteSpace=wrap;resizeHeight=1;" vertex="1" parent="ubp4QQkd1jMlwUoyKCY6-40">
          <mxGeometry width="60" height="30" relative="1" as="geometry" />
        </mxCell>
        <mxCell id="ubp4QQkd1jMlwUoyKCY6-42" value="3425" style="strokeColor=#666666;fillColor=#f5f5f5;fontColor=#333333;html=1;shadow=0;dashed=0;perimeter=none;whiteSpace=wrap;resizeHeight=1;" vertex="1" parent="ubp4QQkd1jMlwUoyKCY6-40">
          <mxGeometry width="110" height="30" relative="1" as="geometry">
            <mxPoint x="55" as="offset" />
          </mxGeometry>
        </mxCell>
        <mxCell id="ubp4QQkd1jMlwUoyKCY6-43" value="3853" style="strokeColor=#666666;fillColor=#f5f5f5;fontColor=#333333;html=1;shadow=0;dashed=0;shape=mxgraph.bootstrap.rightButton;rSize=5;perimeter=none;whiteSpace=wrap;resizeHeight=1;" vertex="1" parent="ubp4QQkd1jMlwUoyKCY6-40">
          <mxGeometry x="1" width="79" height="30" relative="1" as="geometry">
            <mxPoint x="-64" as="offset" />
          </mxGeometry>
        </mxCell>
        <mxCell id="ubp4QQkd1jMlwUoyKCY6-44" style="edgeStyle=orthogonalEdgeStyle;rounded=0;orthogonalLoop=1;jettySize=auto;html=1;entryX=0.5;entryY=1;entryDx=0;entryDy=0;" edge="1" parent="1" source="ubp4QQkd1jMlwUoyKCY6-45" target="ubp4QQkd1jMlwUoyKCY6-47">
          <mxGeometry relative="1" as="geometry" />
        </mxCell>
        <mxCell id="ubp4QQkd1jMlwUoyKCY6-45" value="Encoder" style="rounded=1;whiteSpace=wrap;html=1;fillColor=#b0e3e6;strokeColor=#0e8088;arcSize=9;" vertex="1" parent="1">
          <mxGeometry x="980" y="590" width="120" height="170" as="geometry" />
        </mxCell>
        <mxCell id="ubp4QQkd1jMlwUoyKCY6-51" style="edgeStyle=orthogonalEdgeStyle;rounded=0;orthogonalLoop=1;jettySize=auto;html=1;" edge="1" parent="1" source="ubp4QQkd1jMlwUoyKCY6-46" target="ubp4QQkd1jMlwUoyKCY6-45">
          <mxGeometry relative="1" as="geometry" />
        </mxCell>
        <mxCell id="ubp4QQkd1jMlwUoyKCY6-46" value="Embedding" style="rounded=1;whiteSpace=wrap;html=1;fillColor=#fad9d5;strokeColor=#ae4132;" vertex="1" parent="1">
          <mxGeometry x="980" y="800" width="120" height="40" as="geometry" />
        </mxCell>
        <mxCell id="ubp4QQkd1jMlwUoyKCY6-47" value="Softmax layer" style="rounded=1;whiteSpace=wrap;html=1;fillColor=#d5e8d4;strokeColor=#82b366;" vertex="1" parent="1">
          <mxGeometry x="980" y="530" width="120" height="40" as="geometry" />
        </mxCell>
        <mxCell id="ubp4QQkd1jMlwUoyKCY6-48" value="" style="endArrow=block;html=1;rounded=0;entryX=0.5;entryY=1;entryDx=0;entryDy=0;strokeWidth=3;endFill=1;" edge="1" parent="1">
          <mxGeometry width="50" height="50" relative="1" as="geometry">
            <mxPoint x="1040" y="525" as="sourcePoint" />
            <mxPoint x="1040" y="490" as="targetPoint" />
          </mxGeometry>
        </mxCell>
        <mxCell id="ubp4QQkd1jMlwUoyKCY6-52" value="" style="endArrow=block;html=1;rounded=0;entryX=0.5;entryY=1;entryDx=0;entryDy=0;strokeWidth=3;endFill=1;" edge="1" parent="1">
          <mxGeometry width="50" height="50" relative="1" as="geometry">
            <mxPoint x="1039.6599999999999" y="881" as="sourcePoint" />
            <mxPoint x="1039.6599999999999" y="846" as="targetPoint" />
          </mxGeometry>
        </mxCell>
        <mxCell id="ubp4QQkd1jMlwUoyKCY6-53" value="Output" style="text;html=1;strokeColor=none;fillColor=none;align=center;verticalAlign=middle;whiteSpace=wrap;rounded=0;" vertex="1" parent="1">
          <mxGeometry x="1005" y="460" width="70" height="30" as="geometry" />
        </mxCell>
        <mxCell id="ubp4QQkd1jMlwUoyKCY6-54" value="Input" style="text;html=1;strokeColor=none;fillColor=none;align=center;verticalAlign=middle;whiteSpace=wrap;rounded=0;" vertex="1" parent="1">
          <mxGeometry x="1005" y="881" width="70" height="30" as="geometry" />
        </mxCell>
        <mxCell id="ubp4QQkd1jMlwUoyKCY6-55" value="&lt;b&gt;Encoder only models&lt;/b&gt;" style="text;html=1;strokeColor=none;fillColor=none;align=center;verticalAlign=middle;whiteSpace=wrap;rounded=0;fontSize=14;" vertex="1" parent="1">
          <mxGeometry x="961.25" y="920" width="157.5" height="30" as="geometry" />
        </mxCell>
        <mxCell id="ubp4QQkd1jMlwUoyKCY6-56" style="edgeStyle=orthogonalEdgeStyle;rounded=0;orthogonalLoop=1;jettySize=auto;html=1;entryX=0.5;entryY=1;entryDx=0;entryDy=0;" edge="1" source="ubp4QQkd1jMlwUoyKCY6-57" target="ubp4QQkd1jMlwUoyKCY6-60" parent="1">
          <mxGeometry relative="1" as="geometry" />
        </mxCell>
        <mxCell id="ubp4QQkd1jMlwUoyKCY6-57" value="Decoder" style="rounded=1;whiteSpace=wrap;html=1;fillColor=#fad7ac;strokeColor=#b46504;arcSize=9;" vertex="1" parent="1">
          <mxGeometry x="1188.75" y="590" width="120" height="170" as="geometry" />
        </mxCell>
        <mxCell id="ubp4QQkd1jMlwUoyKCY6-58" style="edgeStyle=orthogonalEdgeStyle;rounded=0;orthogonalLoop=1;jettySize=auto;html=1;" edge="1" source="ubp4QQkd1jMlwUoyKCY6-59" target="ubp4QQkd1jMlwUoyKCY6-57" parent="1">
          <mxGeometry relative="1" as="geometry" />
        </mxCell>
        <mxCell id="ubp4QQkd1jMlwUoyKCY6-59" value="Embedding" style="rounded=1;whiteSpace=wrap;html=1;fillColor=#fad9d5;strokeColor=#ae4132;" vertex="1" parent="1">
          <mxGeometry x="1188.75" y="800" width="120" height="40" as="geometry" />
        </mxCell>
        <mxCell id="ubp4QQkd1jMlwUoyKCY6-60" value="Softmax layer" style="rounded=1;whiteSpace=wrap;html=1;fillColor=#d5e8d4;strokeColor=#82b366;" vertex="1" parent="1">
          <mxGeometry x="1188.75" y="530" width="120" height="40" as="geometry" />
        </mxCell>
        <mxCell id="ubp4QQkd1jMlwUoyKCY6-61" value="" style="endArrow=block;html=1;rounded=0;entryX=0.5;entryY=1;entryDx=0;entryDy=0;strokeWidth=3;endFill=1;" edge="1" parent="1">
          <mxGeometry width="50" height="50" relative="1" as="geometry">
            <mxPoint x="1248.46" y="525" as="sourcePoint" />
            <mxPoint x="1248.46" y="490" as="targetPoint" />
          </mxGeometry>
        </mxCell>
        <mxCell id="ubp4QQkd1jMlwUoyKCY6-62" value="" style="endArrow=block;html=1;rounded=0;entryX=0.5;entryY=1;entryDx=0;entryDy=0;strokeWidth=3;endFill=1;" edge="1" parent="1">
          <mxGeometry width="50" height="50" relative="1" as="geometry">
            <mxPoint x="1248.4099999999999" y="881" as="sourcePoint" />
            <mxPoint x="1248.4099999999999" y="846" as="targetPoint" />
          </mxGeometry>
        </mxCell>
        <mxCell id="ubp4QQkd1jMlwUoyKCY6-63" value="Output" style="text;html=1;strokeColor=none;fillColor=none;align=center;verticalAlign=middle;whiteSpace=wrap;rounded=0;" vertex="1" parent="1">
          <mxGeometry x="1213.75" y="460" width="70" height="30" as="geometry" />
        </mxCell>
        <mxCell id="ubp4QQkd1jMlwUoyKCY6-64" value="Input" style="text;html=1;strokeColor=none;fillColor=none;align=center;verticalAlign=middle;whiteSpace=wrap;rounded=0;" vertex="1" parent="1">
          <mxGeometry x="1213.75" y="881" width="70" height="30" as="geometry" />
        </mxCell>
        <mxCell id="ubp4QQkd1jMlwUoyKCY6-65" value="&lt;b&gt;Decoder only models&lt;/b&gt;" style="text;html=1;strokeColor=none;fillColor=none;align=center;verticalAlign=middle;whiteSpace=wrap;rounded=0;fontSize=14;" vertex="1" parent="1">
          <mxGeometry x="1170" y="920" width="157.5" height="30" as="geometry" />
        </mxCell>
        <mxCell id="ubp4QQkd1jMlwUoyKCY6-66" style="edgeStyle=orthogonalEdgeStyle;rounded=1;orthogonalLoop=1;jettySize=auto;html=1;exitX=0.5;exitY=0;exitDx=0;exitDy=0;curved=0;" edge="1" parent="1" source="ubp4QQkd1jMlwUoyKCY6-67" target="ubp4QQkd1jMlwUoyKCY6-69">
          <mxGeometry relative="1" as="geometry" />
        </mxCell>
        <mxCell id="ubp4QQkd1jMlwUoyKCY6-67" value="Encoder" style="rounded=1;whiteSpace=wrap;html=1;fillColor=#b1ddf0;strokeColor=#10739e;arcSize=9;" vertex="1" parent="1">
          <mxGeometry x="1370" y="640" width="120" height="120" as="geometry" />
        </mxCell>
        <mxCell id="ubp4QQkd1jMlwUoyKCY6-68" style="edgeStyle=orthogonalEdgeStyle;rounded=0;orthogonalLoop=1;jettySize=auto;html=1;entryX=0.5;entryY=1;entryDx=0;entryDy=0;" edge="1" parent="1" source="ubp4QQkd1jMlwUoyKCY6-69" target="ubp4QQkd1jMlwUoyKCY6-73">
          <mxGeometry relative="1" as="geometry" />
        </mxCell>
        <mxCell id="ubp4QQkd1jMlwUoyKCY6-69" value="Decoder" style="rounded=1;whiteSpace=wrap;html=1;fillColor=#fad7ac;strokeColor=#b46504;arcSize=9;" vertex="1" parent="1">
          <mxGeometry x="1535" y="590" width="120" height="170" as="geometry" />
        </mxCell>
        <mxCell id="ubp4QQkd1jMlwUoyKCY6-70" style="edgeStyle=orthogonalEdgeStyle;rounded=1;orthogonalLoop=1;jettySize=auto;html=1;entryX=0.5;entryY=1;entryDx=0;entryDy=0;curved=0;" edge="1" parent="1" source="ubp4QQkd1jMlwUoyKCY6-72" target="ubp4QQkd1jMlwUoyKCY6-67">
          <mxGeometry relative="1" as="geometry">
            <Array as="points">
              <mxPoint x="1515" y="780" />
              <mxPoint x="1430" y="780" />
            </Array>
          </mxGeometry>
        </mxCell>
        <mxCell id="ubp4QQkd1jMlwUoyKCY6-71" style="edgeStyle=orthogonalEdgeStyle;rounded=1;orthogonalLoop=1;jettySize=auto;html=1;curved=0;" edge="1" parent="1" source="ubp4QQkd1jMlwUoyKCY6-72" target="ubp4QQkd1jMlwUoyKCY6-69">
          <mxGeometry relative="1" as="geometry" />
        </mxCell>
        <mxCell id="ubp4QQkd1jMlwUoyKCY6-72" value="Embedding" style="rounded=1;whiteSpace=wrap;html=1;fillColor=#fad9d5;strokeColor=#ae4132;" vertex="1" parent="1">
          <mxGeometry x="1455" y="800" width="120" height="40" as="geometry" />
        </mxCell>
        <mxCell id="ubp4QQkd1jMlwUoyKCY6-73" value="Softmax layer" style="rounded=1;whiteSpace=wrap;html=1;fillColor=#d5e8d4;strokeColor=#82b366;" vertex="1" parent="1">
          <mxGeometry x="1535" y="530" width="120" height="40" as="geometry" />
        </mxCell>
        <mxCell id="ubp4QQkd1jMlwUoyKCY6-74" value="" style="endArrow=block;html=1;rounded=0;entryX=0.5;entryY=1;entryDx=0;entryDy=0;strokeWidth=3;endFill=1;" edge="1" parent="1">
          <mxGeometry width="50" height="50" relative="1" as="geometry">
            <mxPoint x="1515" y="885" as="sourcePoint" />
            <mxPoint x="1515" y="850" as="targetPoint" />
          </mxGeometry>
        </mxCell>
        <mxCell id="ubp4QQkd1jMlwUoyKCY6-75" value="" style="endArrow=block;html=1;rounded=0;entryX=0.5;entryY=1;entryDx=0;entryDy=0;strokeWidth=3;endFill=1;" edge="1" parent="1">
          <mxGeometry width="50" height="50" relative="1" as="geometry">
            <mxPoint x="1594.71" y="525" as="sourcePoint" />
            <mxPoint x="1594.71" y="490" as="targetPoint" />
          </mxGeometry>
        </mxCell>
        <mxCell id="ubp4QQkd1jMlwUoyKCY6-76" value="&lt;b&gt;Encoder-Decoder models&lt;/b&gt;" style="text;html=1;strokeColor=none;fillColor=none;align=center;verticalAlign=middle;whiteSpace=wrap;rounded=0;fontSize=14;" vertex="1" parent="1">
          <mxGeometry x="1430" y="920" width="180" height="30" as="geometry" />
        </mxCell>
        <mxCell id="ubp4QQkd1jMlwUoyKCY6-77" value="Input" style="text;html=1;strokeColor=none;fillColor=none;align=center;verticalAlign=middle;whiteSpace=wrap;rounded=0;" vertex="1" parent="1">
          <mxGeometry x="1480" y="881" width="70" height="30" as="geometry" />
        </mxCell>
        <mxCell id="ubp4QQkd1jMlwUoyKCY6-78" value="Output" style="text;html=1;strokeColor=none;fillColor=none;align=center;verticalAlign=middle;whiteSpace=wrap;rounded=0;" vertex="1" parent="1">
          <mxGeometry x="1560" y="460" width="70" height="30" as="geometry" />
        </mxCell>
      </root>
    </mxGraphModel>
  </diagram>
</mxfile>
